<svg xmlns="http://www.w3.org/2000/svg" xmlns:xlink="http://www.w3.org/1999/xlink" width="500" zoomAndPan="magnify" viewBox="0 0 375 374.999991" height="500" preserveAspectRatio="xMidYMid meet" version="1.0"><defs><clipPath id="6045587f2a"><path d="M 30.585938 14.179688 L 344.085938 14.179688 L 344.085938 327.679688 L 30.585938 327.679688 Z M 30.585938 14.179688 " clip-rule="nonzero"/></clipPath><clipPath id="ff4f67fd82"><path d="M 30.585938 30.585938 L 344.085938 30.585938 L 344.085938 344.085938 L 30.585938 344.085938 Z M 30.585938 30.585938 " clip-rule="nonzero"/></clipPath><clipPath id="42af3aaf1d"><path d="M 42.476562 54.367188 L 332.726562 54.367188 L 332.726562 344.617188 L 42.476562 344.617188 Z M 42.476562 54.367188 " clip-rule="nonzero"/></clipPath></defs><g clip-path="url(#6045587f2a)"><path fill="#bfbdbc" d="M 344.085938 170.933594 C 344.085938 257.5 273.910156 327.679688 187.339844 327.679688 C 100.769531 327.679688 30.59375 257.5 30.59375 170.933594 C 30.59375 84.363281 100.769531 14.1875 187.339844 14.1875 C 273.910156 14.1875 344.085938 84.363281 344.085938 170.933594 " fill-opacity="1" fill-rule="nonzero"/></g><path fill="#ffffff" d="M 243.019531 121.382812 C 243.019531 152.242188 218 177.261719 187.140625 177.261719 C 156.277344 177.261719 131.257812 152.242188 131.257812 121.382812 C 131.257812 90.519531 156.277344 65.5 187.140625 65.5 C 218 65.5 243.019531 90.519531 243.019531 121.382812 " fill-opacity="1" fill-rule="nonzero"/><path fill="#ffffff" d="M 187.136719 320.238281 C 226.679688 320.238281 262.796875 305.589844 290.375 281.429688 C 281.8125 225.535156 256.609375 186.742188 187.136719 186.742188 C 119.621094 186.742188 93.484375 225.699219 84.304688 281.789062 C 111.828125 305.734375 147.789062 320.238281 187.136719 320.238281 " fill-opacity="1" fill-rule="nonzero"/><g clip-path="url(#ff4f67fd82)"><path fill="#bfbdbc" d="M 344.085938 187.339844 C 344.085938 273.90625 273.910156 344.085938 187.339844 344.085938 C 100.769531 344.085938 30.59375 273.90625 30.59375 187.339844 C 30.59375 100.769531 100.769531 30.59375 187.339844 30.59375 C 273.910156 30.59375 344.085938 100.769531 344.085938 187.339844 " fill-opacity="1" fill-rule="nonzero"/></g><path fill="#ffffff" d="M 243.019531 137.789062 C 243.019531 168.648438 218 193.667969 187.140625 193.667969 C 156.277344 193.667969 131.257812 168.648438 131.257812 137.789062 C 131.257812 106.925781 156.277344 81.90625 187.140625 81.90625 C 218 81.90625 243.019531 106.925781 243.019531 137.789062 " fill-opacity="1" fill-rule="nonzero"/><path fill="#ffffff" d="M 187.136719 336.644531 C 226.679688 336.644531 262.796875 321.996094 290.375 297.835938 C 281.8125 241.941406 256.609375 203.148438 187.136719 203.148438 C 119.621094 203.148438 93.484375 242.105469 84.304688 298.195312 C 111.828125 322.140625 147.789062 336.644531 187.136719 336.644531 " fill-opacity="1" fill-rule="nonzero"/><g clip-path="url(#42af3aaf1d)"><path fill="#bfbdbc" d="M 332.726562 199.492188 C 332.726562 279.640625 267.753906 344.613281 187.601562 344.613281 C 107.457031 344.613281 42.480469 279.640625 42.480469 199.492188 C 42.480469 119.34375 107.457031 54.371094 187.601562 54.371094 C 267.753906 54.371094 332.726562 119.34375 332.726562 199.492188 " fill-opacity="1" fill-rule="nonzero"/></g><path fill="#ffffff" d="M 239.15625 153.617188 C 239.15625 182.1875 215.988281 205.351562 187.417969 205.351562 C 158.84375 205.351562 135.679688 182.1875 135.679688 153.617188 C 135.679688 125.042969 158.84375 101.878906 187.417969 101.878906 C 215.988281 101.878906 239.15625 125.042969 239.15625 153.617188 " fill-opacity="1" fill-rule="nonzero"/><path fill="#ffffff" d="M 187.417969 337.726562 C 224.027344 337.726562 257.464844 324.164062 282.996094 301.796875 C 275.070312 250.042969 251.734375 214.132812 187.417969 214.132812 C 124.90625 214.132812 100.710938 250.195312 92.210938 302.125 C 117.691406 324.296875 150.988281 337.726562 187.417969 337.726562 " fill-opacity="1" fill-rule="nonzero"/></svg>