<svg xmlns="http://www.w3.org/2000/svg" xmlns:xlink="http://www.w3.org/1999/xlink" width="500" zoomAndPan="magnify" viewBox="0 0 375 374.999991" height="500" preserveAspectRatio="xMidYMid meet" version="1.0"><defs><g/><clipPath id="1d5e3591cc"><path d="M 116.753906 84.902344 L 187 84.902344 L 187 228.066406 L 116.753906 228.066406 Z M 116.753906 84.902344 " clip-rule="nonzero"/></clipPath><clipPath id="66d378a5a8"><path d="M 164 132 L 259.917969 132 L 259.917969 228.066406 L 164 228.066406 Z M 164 132 " clip-rule="nonzero"/></clipPath></defs><g clip-path="url(#1d5e3591cc)"><path fill="#ff1616" d="M 184.40625 220.652344 C 177.457031 225.507812 168.996094 228.347656 159.882812 228.347656 L 159.695312 228.347656 C 135.984375 228.347656 116.753906 209.121094 116.753906 185.40625 C 116.753906 179.046875 118.164062 172.773438 120.890625 167.019531 L 159.789062 84.902344 L 186.066406 140.394531 L 184.40625 220.652344 " fill-opacity="1" fill-rule="nonzero"/></g><path fill="#ffffff" d="M 126.316406 187.800781 C 125 187.800781 123.925781 186.734375 123.925781 185.40625 C 123.925781 180.148438 125.121094 174.847656 127.363281 170.09375 L 148.953125 124.527344 C 149.523438 123.332031 150.953125 122.820312 152.140625 123.386719 C 153.335938 123.949219 153.847656 125.378906 153.277344 126.5625 L 131.6875 172.136719 C 129.734375 176.265625 128.707031 180.851562 128.707031 185.40625 C 128.707031 186.734375 127.632812 187.800781 126.316406 187.800781 " fill-opacity="1" fill-rule="nonzero"/><path fill="#ef6477" d="M 157.398438 180.53125 C 157.398438 198.222656 165.753906 213.9375 178.71875 223.996094 C 180.707031 223.023438 182.613281 221.914062 184.40625 220.652344 L 186.066406 140.394531 L 183.0625 134.023438 C 167.640625 143.765625 157.398438 160.949219 157.398438 180.53125 " fill-opacity="1" fill-rule="nonzero"/><g clip-path="url(#66d378a5a8)"><path fill="#ececec" d="M 164.570312 180.53125 C 164.570312 154.121094 185.972656 132.71875 212.386719 132.71875 C 238.796875 132.71875 260.199219 154.121094 260.199219 180.53125 C 260.199219 206.945312 238.796875 228.347656 212.386719 228.347656 C 185.972656 228.347656 164.570312 206.945312 164.570312 180.53125 " fill-opacity="1" fill-rule="nonzero"/></g><path fill="#ff1616" d="M 231.511719 159.015625 C 231.511719 166.9375 222.949219 173.359375 212.386719 173.359375 C 201.824219 173.359375 193.257812 166.9375 193.257812 159.015625 C 193.257812 151.097656 201.824219 144.671875 212.386719 144.671875 C 222.949219 144.671875 231.511719 151.097656 231.511719 159.015625 " fill-opacity="1" fill-rule="nonzero"/><path fill="#ef6477" d="M 212.386719 159.015625 C 209.640625 159.015625 206.96875 158.585938 204.445312 157.726562 C 203.195312 157.296875 202.523438 155.945312 202.945312 154.691406 C 203.371094 153.441406 204.726562 152.777344 205.980469 153.199219 C 210.039062 154.570312 214.730469 154.570312 218.792969 153.199219 C 220.042969 152.777344 221.398438 153.441406 221.828125 154.691406 C 222.246094 155.945312 221.574219 157.296875 220.324219 157.726562 C 217.800781 158.585938 215.128906 159.015625 212.386719 159.015625 " fill-opacity="1" fill-rule="nonzero"/><path fill="#ff1616" d="M 248.152344 182.53125 C 243.316406 176.292969 233.003906 176.761719 225.132812 183.585938 C 217.261719 190.40625 214.804688 200.984375 219.652344 207.222656 C 224.488281 213.460938 234.796875 212.996094 242.671875 206.179688 C 250.542969 199.351562 253 188.769531 248.152344 182.53125 " fill-opacity="1" fill-rule="nonzero"/><path fill="#ef6477" d="M 226.105469 199.070312 C 225.132812 199.070312 224.226562 198.472656 223.863281 197.511719 C 223.394531 196.277344 224.019531 194.90625 225.261719 194.4375 C 227.261719 193.683594 229.148438 192.589844 230.867188 191.179688 C 232.585938 189.769531 234.03125 188.136719 235.164062 186.3125 C 235.863281 185.191406 237.339844 184.855469 238.460938 185.546875 C 239.578125 186.25 239.925781 187.722656 239.226562 188.84375 C 237.816406 191.105469 236.03125 193.140625 233.902344 194.878906 C 231.773438 196.613281 229.4375 197.976562 226.945312 198.914062 C 226.664062 199.015625 226.382812 199.070312 226.105469 199.070312 " fill-opacity="1" fill-rule="nonzero"/><path fill="#ff1616" d="M 176.617188 182.53125 C 181.453125 176.292969 191.765625 176.761719 199.636719 183.585938 C 207.511719 190.40625 209.964844 200.984375 205.121094 207.222656 C 200.28125 213.460938 189.972656 212.996094 182.097656 206.179688 C 174.226562 199.351562 171.769531 188.769531 176.617188 182.53125 " fill-opacity="1" fill-rule="nonzero"/><path fill="#ef6477" d="M 198.667969 199.070312 C 198.386719 199.070312 198.105469 199.015625 197.824219 198.914062 C 195.332031 197.976562 192.996094 196.613281 190.867188 194.878906 C 188.738281 193.140625 186.957031 191.105469 185.546875 188.84375 C 184.84375 187.722656 185.191406 186.25 186.3125 185.546875 C 187.429688 184.855469 188.90625 185.191406 189.605469 186.3125 C 190.738281 188.136719 192.183594 189.769531 193.902344 191.179688 C 195.621094 192.589844 197.507812 193.683594 199.507812 194.4375 C 200.75 194.90625 201.375 196.277344 200.90625 197.511719 C 200.542969 198.472656 199.636719 199.070312 198.667969 199.070312 " fill-opacity="1" fill-rule="nonzero"/><path fill="#ffffff" d="M 158.171875 117.308594 C 158.171875 118.625 157.097656 119.699219 155.78125 119.699219 C 154.464844 119.699219 153.390625 118.625 153.390625 117.308594 C 153.390625 115.992188 154.464844 114.917969 155.78125 114.917969 C 157.097656 114.917969 158.171875 115.992188 158.171875 117.308594 " fill-opacity="1" fill-rule="nonzero"/><g fill="#1c2120" fill-opacity="1"><g transform="translate(81.151767, 266.806152)"><g><path d="M 7.78125 -16.265625 C 10.1875 -16.265625 12.300781 -15.664062 14.125 -14.46875 L 12.59375 -11.28125 C 11.75 -11.769531 10.84375 -12.171875 9.875 -12.484375 C 8.90625 -12.796875 8.09375 -12.953125 7.4375 -12.953125 C 6.257812 -12.953125 5.671875 -12.5625 5.671875 -11.78125 C 5.671875 -11.28125 5.960938 -10.875 6.546875 -10.5625 C 7.128906 -10.257812 7.835938 -9.992188 8.671875 -9.765625 C 9.503906 -9.546875 10.335938 -9.28125 11.171875 -8.96875 C 12.003906 -8.65625 12.710938 -8.144531 13.296875 -7.4375 C 13.878906 -6.738281 14.171875 -5.851562 14.171875 -4.78125 C 14.171875 -3.226562 13.566406 -2.019531 12.359375 -1.15625 C 11.148438 -0.289062 9.609375 0.140625 7.734375 0.140625 C 6.410156 0.140625 5.097656 -0.0859375 3.796875 -0.546875 C 2.492188 -1.003906 1.359375 -1.632812 0.390625 -2.4375 L 1.96875 -5.578125 C 2.78125 -4.878906 3.738281 -4.300781 4.84375 -3.84375 C 5.945312 -3.394531 6.925781 -3.171875 7.78125 -3.171875 C 8.445312 -3.171875 8.960938 -3.285156 9.328125 -3.515625 C 9.691406 -3.753906 9.875 -4.109375 9.875 -4.578125 C 9.875 -5.015625 9.660156 -5.378906 9.234375 -5.671875 C 8.816406 -5.972656 8.296875 -6.195312 7.671875 -6.34375 C 7.046875 -6.488281 6.363281 -6.679688 5.625 -6.921875 C 4.894531 -7.171875 4.210938 -7.441406 3.578125 -7.734375 C 2.953125 -8.023438 2.425781 -8.488281 2 -9.125 C 1.582031 -9.757812 1.375 -10.523438 1.375 -11.421875 C 1.375 -12.890625 1.957031 -14.0625 3.125 -14.9375 C 4.300781 -15.820312 5.851562 -16.265625 7.78125 -16.265625 Z M 7.78125 -16.265625 "/></g></g></g><g fill="#1c2120" fill-opacity="1"><g transform="translate(95.937375, 266.806152)"><g><path d="M 16.453125 0 L 12.359375 0 L 12.359375 -6.25 L 5.703125 -6.25 L 5.703125 0 L 1.609375 0 L 1.609375 -16.078125 L 5.703125 -16.078125 L 5.703125 -9.46875 L 12.359375 -9.46875 L 12.359375 -16.078125 L 16.453125 -16.078125 Z M 16.453125 0 "/></g></g></g><g fill="#1c2120" fill-opacity="1"><g transform="translate(113.983164, 266.806152)"><g><path d="M 12.28125 -2.96875 L 5.265625 -2.96875 L 4.09375 0 L -0.109375 0 L 6.828125 -16.078125 L 11.03125 -16.078125 L 17.796875 0 L 13.4375 0 Z M 11.09375 -6.0625 L 8.796875 -12.015625 L 6.453125 -6.0625 Z M 11.09375 -6.0625 "/></g></g></g><g fill="#1c2120" fill-opacity="1"><g transform="translate(131.661608, 266.806152)"><g><path d="M 11.296875 0 L 8.90625 -4.53125 L 5.703125 -4.53125 L 5.703125 0 L 1.609375 0 L 1.609375 -16.078125 L 8.796875 -16.078125 C 10.921875 -16.078125 12.566406 -15.585938 13.734375 -14.609375 C 14.898438 -13.640625 15.484375 -12.257812 15.484375 -10.46875 C 15.484375 -7.988281 14.507812 -6.269531 12.5625 -5.3125 L 15.9375 0 Z M 5.703125 -7.734375 L 8.796875 -7.734375 C 9.679688 -7.734375 10.367188 -7.957031 10.859375 -8.40625 C 11.347656 -8.851562 11.59375 -9.5 11.59375 -10.34375 C 11.59375 -11.164062 11.347656 -11.789062 10.859375 -12.21875 C 10.367188 -12.644531 9.679688 -12.859375 8.796875 -12.859375 L 5.703125 -12.859375 Z M 5.703125 -7.734375 "/></g></g></g><g fill="#1c2120" fill-opacity="1"><g transform="translate(148.283938, 266.806152)"><g><path d="M 14.1875 -12.859375 L 5.703125 -12.859375 L 5.703125 -9.671875 L 13.375 -9.671875 L 13.375 -6.453125 L 5.703125 -6.453125 L 5.703125 -3.21875 L 14.453125 -3.21875 L 14.453125 0 L 1.609375 0 L 1.609375 -16.078125 L 14.1875 -16.078125 Z M 14.1875 -12.859375 "/></g></g></g><g fill="#1c2120" fill-opacity="1"><g transform="translate(163.758317, 266.806152)"><g/></g></g><g fill="#1c2120" fill-opacity="1"><g transform="translate(169.08481, 266.806152)"><g><path d="M 9.90625 -5.1875 L 9.90625 0 L 5.828125 0 L 5.828125 -5.078125 L -0.109375 -16.078125 L 3.96875 -16.078125 L 7.859375 -9.078125 L 11.640625 -16.078125 L 15.734375 -16.078125 Z M 9.90625 -5.1875 "/></g></g></g><g fill="#1c2120" fill-opacity="1"><g transform="translate(184.696943, 266.806152)"><g><path d="M 9.234375 -16.21875 C 11.734375 -16.21875 13.804688 -15.4375 15.453125 -13.875 C 17.109375 -12.320312 17.9375 -10.382812 17.9375 -8.0625 C 17.9375 -5.71875 17.101562 -3.753906 15.4375 -2.171875 C 13.78125 -0.597656 11.710938 0.1875 9.234375 0.1875 C 6.753906 0.1875 4.6875 -0.597656 3.03125 -2.171875 C 1.375 -3.742188 0.546875 -5.707031 0.546875 -8.0625 C 0.546875 -10.40625 1.375 -12.347656 3.03125 -13.890625 C 4.6875 -15.441406 6.753906 -16.21875 9.234375 -16.21875 Z M 9.28125 -12.796875 C 8.019531 -12.796875 6.945312 -12.335938 6.0625 -11.421875 C 5.175781 -10.515625 4.734375 -9.382812 4.734375 -8.03125 C 4.734375 -6.6875 5.179688 -5.550781 6.078125 -4.625 C 6.972656 -3.695312 8.039062 -3.234375 9.28125 -3.234375 C 10.519531 -3.234375 11.570312 -3.695312 12.4375 -4.625 C 13.300781 -5.550781 13.734375 -6.6875 13.734375 -8.03125 C 13.734375 -9.382812 13.300781 -10.515625 12.4375 -11.421875 C 11.570312 -12.335938 10.519531 -12.796875 9.28125 -12.796875 Z M 9.28125 -12.796875 "/></g></g></g><g fill="#1c2120" fill-opacity="1"><g transform="translate(203.17896, 266.806152)"><g><path d="M 16.078125 -16.078125 L 16.078125 -6.75 C 16.078125 -4.625 15.414062 -2.9375 14.09375 -1.6875 C 12.78125 -0.4375 11 0.1875 8.75 0.1875 C 6.488281 0.1875 4.6875 -0.4375 3.34375 -1.6875 C 2 -2.9375 1.328125 -4.625 1.328125 -6.75 L 1.328125 -16.078125 L 5.421875 -16.078125 L 5.421875 -6.75 C 5.421875 -5.675781 5.726562 -4.820312 6.34375 -4.1875 C 6.96875 -3.550781 7.78125 -3.234375 8.78125 -3.234375 C 9.757812 -3.234375 10.539062 -3.546875 11.125 -4.171875 C 11.71875 -4.804688 12.015625 -5.664062 12.015625 -6.75 L 12.015625 -16.078125 Z M 16.078125 -16.078125 "/></g></g></g><g fill="#1c2120" fill-opacity="1"><g transform="translate(220.581897, 266.806152)"><g><path d="M 11.296875 0 L 8.90625 -4.53125 L 5.703125 -4.53125 L 5.703125 0 L 1.609375 0 L 1.609375 -16.078125 L 8.796875 -16.078125 C 10.921875 -16.078125 12.566406 -15.585938 13.734375 -14.609375 C 14.898438 -13.640625 15.484375 -12.257812 15.484375 -10.46875 C 15.484375 -7.988281 14.507812 -6.269531 12.5625 -5.3125 L 15.9375 0 Z M 5.703125 -7.734375 L 8.796875 -7.734375 C 9.679688 -7.734375 10.367188 -7.957031 10.859375 -8.40625 C 11.347656 -8.851562 11.59375 -9.5 11.59375 -10.34375 C 11.59375 -11.164062 11.347656 -11.789062 10.859375 -12.21875 C 10.367188 -12.644531 9.679688 -12.859375 8.796875 -12.859375 L 5.703125 -12.859375 Z M 5.703125 -7.734375 "/></g></g></g><g fill="#1c2120" fill-opacity="1"><g transform="translate(237.204227, 266.806152)"><g/></g></g><g fill="#1c2120" fill-opacity="1"><g transform="translate(242.530719, 266.806152)"><g><path d="M 1.609375 -16.078125 L 8.515625 -16.078125 C 11.046875 -16.078125 13.101562 -15.332031 14.6875 -13.84375 C 16.269531 -12.363281 17.0625 -10.429688 17.0625 -8.046875 C 17.0625 -5.671875 16.257812 -3.734375 14.65625 -2.234375 C 13.050781 -0.742188 10.953125 0 8.359375 0 L 1.609375 0 Z M 5.703125 -12.8125 L 5.703125 -3.265625 L 8.609375 -3.265625 C 9.867188 -3.265625 10.898438 -3.703125 11.703125 -4.578125 C 12.503906 -5.460938 12.90625 -6.609375 12.90625 -8.015625 C 12.90625 -9.421875 12.484375 -10.570312 11.640625 -11.46875 C 10.796875 -12.363281 9.722656 -12.8125 8.421875 -12.8125 Z M 5.703125 -12.8125 "/></g></g></g><g fill="#1c2120" fill-opacity="1"><g transform="translate(260.140293, 266.806152)"><g><path d="M 11.296875 0 L 8.90625 -4.53125 L 5.703125 -4.53125 L 5.703125 0 L 1.609375 0 L 1.609375 -16.078125 L 8.796875 -16.078125 C 10.921875 -16.078125 12.566406 -15.585938 13.734375 -14.609375 C 14.898438 -13.640625 15.484375 -12.257812 15.484375 -10.46875 C 15.484375 -7.988281 14.507812 -6.269531 12.5625 -5.3125 L 15.9375 0 Z M 5.703125 -7.734375 L 8.796875 -7.734375 C 9.679688 -7.734375 10.367188 -7.957031 10.859375 -8.40625 C 11.347656 -8.851562 11.59375 -9.5 11.59375 -10.34375 C 11.59375 -11.164062 11.347656 -11.789062 10.859375 -12.21875 C 10.367188 -12.644531 9.679688 -12.859375 8.796875 -12.859375 L 5.703125 -12.859375 Z M 5.703125 -7.734375 "/></g></g></g><g fill="#1c2120" fill-opacity="1"><g transform="translate(276.762623, 266.806152)"><g><path d="M 9.234375 -16.21875 C 11.734375 -16.21875 13.804688 -15.4375 15.453125 -13.875 C 17.109375 -12.320312 17.9375 -10.382812 17.9375 -8.0625 C 17.9375 -5.71875 17.101562 -3.753906 15.4375 -2.171875 C 13.78125 -0.597656 11.710938 0.1875 9.234375 0.1875 C 6.753906 0.1875 4.6875 -0.597656 3.03125 -2.171875 C 1.375 -3.742188 0.546875 -5.707031 0.546875 -8.0625 C 0.546875 -10.40625 1.375 -12.347656 3.03125 -13.890625 C 4.6875 -15.441406 6.753906 -16.21875 9.234375 -16.21875 Z M 9.28125 -12.796875 C 8.019531 -12.796875 6.945312 -12.335938 6.0625 -11.421875 C 5.175781 -10.515625 4.734375 -9.382812 4.734375 -8.03125 C 4.734375 -6.6875 5.179688 -5.550781 6.078125 -4.625 C 6.972656 -3.695312 8.039062 -3.234375 9.28125 -3.234375 C 10.519531 -3.234375 11.570312 -3.695312 12.4375 -4.625 C 13.300781 -5.550781 13.734375 -6.6875 13.734375 -8.03125 C 13.734375 -9.382812 13.300781 -10.515625 12.4375 -11.421875 C 11.570312 -12.335938 10.519531 -12.796875 9.28125 -12.796875 Z M 9.28125 -12.796875 "/></g></g></g><g fill="#1c2120" fill-opacity="1"><g transform="translate(295.24464, 266.806152)"><g><path d="M 1.609375 -16.078125 L 8.609375 -16.078125 C 10.660156 -16.078125 12.253906 -15.585938 13.390625 -14.609375 C 14.523438 -13.640625 15.09375 -12.257812 15.09375 -10.46875 C 15.09375 -8.59375 14.523438 -7.132812 13.390625 -6.09375 C 12.253906 -5.050781 10.660156 -4.53125 8.609375 -4.53125 L 5.703125 -4.53125 L 5.703125 0 L 1.609375 0 Z M 5.703125 -12.859375 L 5.703125 -7.734375 L 8.40625 -7.734375 C 9.3125 -7.734375 10.007812 -7.957031 10.5 -8.40625 C 10.988281 -8.851562 11.234375 -9.5 11.234375 -10.34375 C 11.234375 -11.164062 10.988281 -11.789062 10.5 -12.21875 C 10.007812 -12.644531 9.3125 -12.859375 8.40625 -12.859375 Z M 5.703125 -12.859375 "/></g></g></g></svg>