<svg xmlns="http://www.w3.org/2000/svg" xmlns:xlink="http://www.w3.org/1999/xlink" width="500" zoomAndPan="magnify" viewBox="0 0 375 374.999991" height="500" preserveAspectRatio="xMidYMid meet" version="1.0"><defs><g/><clipPath id="c159215d72"><path d="M 125.21875 127.074219 L 180 127.074219 L 180 239.574219 L 125.21875 239.574219 Z M 125.21875 127.074219 " clip-rule="nonzero"/></clipPath><clipPath id="038c3602e7"><path d="M 162 164 L 237.71875 164 L 237.71875 239.574219 L 162 239.574219 Z M 162 164 " clip-rule="nonzero"/></clipPath></defs><rect x="-37.5" width="450" fill="#ffffff" y="-37.499999" height="449.999989" fill-opacity="1"/><rect x="-37.5" width="450" fill="#f4f5f7" y="-37.499999" height="449.999989" fill-opacity="1"/><g clip-path="url(#c159215d72)"><path fill="#ff1616" d="M 178.382812 233.75 C 172.921875 237.566406 166.273438 239.796875 159.109375 239.796875 L 158.964844 239.796875 C 140.332031 239.796875 125.21875 224.6875 125.21875 206.054688 C 125.21875 201.054688 126.328125 196.125 128.472656 191.601562 L 159.039062 127.074219 L 179.6875 170.679688 L 178.382812 233.75 " fill-opacity="1" fill-rule="nonzero"/></g><path fill="#ffffff" d="M 132.734375 207.929688 C 131.699219 207.929688 130.855469 207.09375 130.855469 206.054688 C 130.855469 201.921875 131.796875 197.753906 133.558594 194.015625 L 150.523438 158.210938 C 150.972656 157.273438 152.09375 156.867188 153.027344 157.316406 C 153.964844 157.757812 154.371094 158.878906 153.921875 159.8125 L 136.957031 195.625 C 135.421875 198.867188 134.613281 202.472656 134.613281 206.054688 C 134.613281 207.09375 133.769531 207.929688 132.734375 207.929688 " fill-opacity="1" fill-rule="nonzero"/><path fill="#ef6477" d="M 157.160156 202.222656 C 157.160156 216.121094 163.726562 228.472656 173.914062 236.375 C 175.476562 235.613281 176.972656 234.738281 178.382812 233.75 L 179.6875 170.679688 L 177.324219 165.675781 C 165.210938 173.328125 157.160156 186.832031 157.160156 202.222656 " fill-opacity="1" fill-rule="nonzero"/><g clip-path="url(#038c3602e7)"><path fill="#ececec" d="M 162.792969 202.222656 C 162.792969 181.46875 179.613281 164.648438 200.367188 164.648438 C 221.121094 164.648438 237.941406 181.46875 237.941406 202.222656 C 237.941406 222.976562 221.121094 239.796875 200.367188 239.796875 C 179.613281 239.796875 162.792969 222.976562 162.792969 202.222656 " fill-opacity="1" fill-rule="nonzero"/></g><path fill="#ff1616" d="M 215.398438 185.3125 C 215.398438 191.535156 208.667969 196.585938 200.367188 196.585938 C 192.070312 196.585938 185.339844 191.535156 185.339844 185.3125 C 185.339844 179.089844 192.070312 174.042969 200.367188 174.042969 C 208.667969 174.042969 215.398438 179.089844 215.398438 185.3125 " fill-opacity="1" fill-rule="nonzero"/><path fill="#ef6477" d="M 200.367188 185.3125 C 198.210938 185.3125 196.113281 184.976562 194.132812 184.300781 C 193.148438 183.964844 192.621094 182.898438 192.949219 181.914062 C 193.285156 180.933594 194.351562 180.410156 195.335938 180.742188 C 198.527344 181.820312 202.210938 181.820312 205.402344 180.742188 C 206.386719 180.410156 207.449219 180.933594 207.789062 181.914062 C 208.117188 182.898438 207.589844 183.964844 206.605469 184.300781 C 204.625 184.976562 202.527344 185.3125 200.367188 185.3125 " fill-opacity="1" fill-rule="nonzero"/><path fill="#ff1616" d="M 228.476562 203.792969 C 224.675781 198.890625 216.574219 199.257812 210.386719 204.621094 C 204.199219 209.980469 202.269531 218.292969 206.078125 223.195312 C 209.878906 228.097656 217.980469 227.730469 224.167969 222.375 C 230.355469 217.007812 232.285156 208.695312 228.476562 203.792969 " fill-opacity="1" fill-rule="nonzero"/><path fill="#ef6477" d="M 211.148438 216.789062 C 210.386719 216.789062 209.675781 216.320312 209.386719 215.5625 C 209.019531 214.59375 209.511719 213.515625 210.488281 213.148438 C 212.058594 212.554688 213.542969 211.695312 214.890625 210.589844 C 216.242188 209.480469 217.378906 208.195312 218.269531 206.765625 C 218.820312 205.882812 219.976562 205.621094 220.859375 206.164062 C 221.738281 206.714844 222.011719 207.871094 221.460938 208.753906 C 220.351562 210.53125 218.949219 212.128906 217.277344 213.496094 C 215.605469 214.859375 213.769531 215.929688 211.808594 216.664062 C 211.589844 216.746094 211.371094 216.789062 211.148438 216.789062 " fill-opacity="1" fill-rule="nonzero"/><path fill="#ff1616" d="M 172.261719 203.792969 C 176.0625 198.890625 184.164062 199.257812 190.351562 204.621094 C 196.539062 209.980469 198.46875 218.292969 194.660156 223.195312 C 190.859375 228.097656 182.757812 227.730469 176.570312 222.375 C 170.382812 217.007812 168.453125 208.695312 172.261719 203.792969 " fill-opacity="1" fill-rule="nonzero"/><path fill="#ef6477" d="M 189.589844 216.789062 C 189.367188 216.789062 189.148438 216.746094 188.929688 216.664062 C 186.96875 215.929688 185.132812 214.859375 183.460938 213.496094 C 181.789062 212.128906 180.386719 210.53125 179.277344 208.753906 C 178.726562 207.871094 179 206.714844 179.878906 206.164062 C 180.761719 205.621094 181.917969 205.882812 182.46875 206.765625 C 183.359375 208.195312 184.496094 209.480469 185.84375 210.589844 C 187.195312 211.695312 188.679688 212.554688 190.25 213.148438 C 191.226562 213.515625 191.714844 214.59375 191.351562 215.5625 C 191.0625 216.320312 190.351562 216.789062 189.589844 216.789062 " fill-opacity="1" fill-rule="nonzero"/><path fill="#ffffff" d="M 157.769531 152.539062 C 157.769531 153.574219 156.921875 154.417969 155.890625 154.417969 C 154.855469 154.417969 154.011719 153.574219 154.011719 152.539062 C 154.011719 151.503906 154.855469 150.660156 155.890625 150.660156 C 156.921875 150.660156 157.769531 151.503906 157.769531 152.539062 " fill-opacity="1" fill-rule="nonzero"/><g fill="#1c2120" fill-opacity="1"><g transform="translate(97.243411, 270.016855)"><g><path d="M 6.125 -12.78125 C 8.007812 -12.78125 9.664062 -12.3125 11.09375 -11.375 L 9.890625 -8.859375 C 9.222656 -9.242188 8.507812 -9.554688 7.75 -9.796875 C 7 -10.046875 6.363281 -10.171875 5.84375 -10.171875 C 4.914062 -10.171875 4.453125 -9.867188 4.453125 -9.265625 C 4.453125 -8.859375 4.679688 -8.535156 5.140625 -8.296875 C 5.597656 -8.054688 6.15625 -7.847656 6.8125 -7.671875 C 7.46875 -7.503906 8.125 -7.296875 8.78125 -7.046875 C 9.4375 -6.796875 9.992188 -6.394531 10.453125 -5.84375 C 10.910156 -5.289062 11.140625 -4.59375 11.140625 -3.75 C 11.140625 -2.539062 10.660156 -1.59375 9.703125 -0.90625 C 8.753906 -0.226562 7.546875 0.109375 6.078125 0.109375 C 5.035156 0.109375 4 -0.0664062 2.96875 -0.421875 C 1.945312 -0.785156 1.0625 -1.28125 0.3125 -1.90625 L 1.546875 -4.390625 C 2.191406 -3.835938 2.945312 -3.378906 3.8125 -3.015625 C 4.675781 -2.660156 5.445312 -2.484375 6.125 -2.484375 C 6.632812 -2.484375 7.035156 -2.578125 7.328125 -2.765625 C 7.617188 -2.953125 7.765625 -3.226562 7.765625 -3.59375 C 7.765625 -3.9375 7.597656 -4.222656 7.265625 -4.453125 C 6.929688 -4.691406 6.515625 -4.867188 6.015625 -4.984375 C 5.523438 -5.097656 4.992188 -5.25 4.421875 -5.4375 C 3.847656 -5.632812 3.3125 -5.847656 2.8125 -6.078125 C 2.320312 -6.304688 1.910156 -6.671875 1.578125 -7.171875 C 1.242188 -7.671875 1.078125 -8.269531 1.078125 -8.96875 C 1.078125 -10.125 1.535156 -11.046875 2.453125 -11.734375 C 3.378906 -12.429688 4.601562 -12.78125 6.125 -12.78125 Z M 6.125 -12.78125 "/></g></g></g><g fill="#1c2120" fill-opacity="1"><g transform="translate(108.862216, 270.016855)"><g><path d="M 12.921875 0 L 9.703125 0 L 9.703125 -4.90625 L 4.46875 -4.90625 L 4.46875 0 L 1.265625 0 L 1.265625 -12.625 L 4.46875 -12.625 L 4.46875 -7.4375 L 9.703125 -7.4375 L 9.703125 -12.625 L 12.921875 -12.625 Z M 12.921875 0 "/></g></g></g><g fill="#1c2120" fill-opacity="1"><g transform="translate(123.04293, 270.016855)"><g><path d="M 9.65625 -2.328125 L 4.125 -2.328125 L 3.21875 0 L -0.09375 0 L 5.359375 -12.625 L 8.65625 -12.625 L 13.984375 0 L 10.5625 0 Z M 8.71875 -4.765625 L 6.90625 -9.4375 L 5.078125 -4.765625 Z M 8.71875 -4.765625 "/></g></g></g><g fill="#1c2120" fill-opacity="1"><g transform="translate(136.934979, 270.016855)"><g><path d="M 8.875 0 L 7 -3.5625 L 4.46875 -3.5625 L 4.46875 0 L 1.265625 0 L 1.265625 -12.625 L 6.90625 -12.625 C 8.582031 -12.625 9.875 -12.242188 10.78125 -11.484375 C 11.695312 -10.722656 12.15625 -9.640625 12.15625 -8.234375 C 12.15625 -6.285156 11.394531 -4.929688 9.875 -4.171875 L 12.53125 0 Z M 4.46875 -6.078125 L 6.90625 -6.078125 C 7.601562 -6.078125 8.144531 -6.25 8.53125 -6.59375 C 8.914062 -6.945312 9.109375 -7.457031 9.109375 -8.125 C 9.109375 -8.769531 8.914062 -9.257812 8.53125 -9.59375 C 8.144531 -9.9375 7.601562 -10.109375 6.90625 -10.109375 L 4.46875 -10.109375 Z M 4.46875 -6.078125 "/></g></g></g><g fill="#1c2120" fill-opacity="1"><g transform="translate(149.997113, 270.016855)"><g><path d="M 11.15625 -10.109375 L 4.46875 -10.109375 L 4.46875 -7.59375 L 10.5 -7.59375 L 10.5 -5.078125 L 4.46875 -5.078125 L 4.46875 -2.53125 L 11.34375 -2.53125 L 11.34375 0 L 1.265625 0 L 1.265625 -12.625 L 11.15625 -12.625 Z M 11.15625 -10.109375 "/></g></g></g><g fill="#1c2120" fill-opacity="1"><g transform="translate(162.157167, 270.016855)"><g/></g></g><g fill="#1c2120" fill-opacity="1"><g transform="translate(166.342823, 270.016855)"><g><path d="M 7.78125 -4.078125 L 7.78125 0 L 4.578125 0 L 4.578125 -3.984375 L -0.09375 -12.625 L 3.125 -12.625 L 6.171875 -7.125 L 9.15625 -12.625 L 12.359375 -12.625 Z M 7.78125 -4.078125 "/></g></g></g><g fill="#1c2120" fill-opacity="1"><g transform="translate(178.611126, 270.016855)"><g><path d="M 7.25 -12.734375 C 9.21875 -12.734375 10.847656 -12.125 12.140625 -10.90625 C 13.441406 -9.6875 14.09375 -8.160156 14.09375 -6.328125 C 14.09375 -4.492188 13.4375 -2.957031 12.125 -1.71875 C 10.820312 -0.476562 9.195312 0.140625 7.25 0.140625 C 5.300781 0.140625 3.675781 -0.472656 2.375 -1.703125 C 1.082031 -2.941406 0.4375 -4.484375 0.4375 -6.328125 C 0.4375 -8.171875 1.082031 -9.695312 2.375 -10.90625 C 3.675781 -12.125 5.300781 -12.734375 7.25 -12.734375 Z M 7.296875 -10.046875 C 6.304688 -10.046875 5.460938 -9.6875 4.765625 -8.96875 C 4.066406 -8.257812 3.71875 -7.375 3.71875 -6.3125 C 3.71875 -5.257812 4.066406 -4.367188 4.765625 -3.640625 C 5.472656 -2.910156 6.3125 -2.546875 7.28125 -2.546875 C 8.257812 -2.546875 9.085938 -2.910156 9.765625 -3.640625 C 10.453125 -4.367188 10.796875 -5.257812 10.796875 -6.3125 C 10.796875 -7.375 10.453125 -8.257812 9.765625 -8.96875 C 9.085938 -9.6875 8.265625 -10.046875 7.296875 -10.046875 Z M 7.296875 -10.046875 "/></g></g></g><g fill="#1c2120" fill-opacity="1"><g transform="translate(193.134637, 270.016855)"><g><path d="M 12.625 -12.625 L 12.625 -5.3125 C 12.625 -3.632812 12.109375 -2.304688 11.078125 -1.328125 C 10.046875 -0.347656 8.644531 0.140625 6.875 0.140625 C 5.09375 0.140625 3.675781 -0.347656 2.625 -1.328125 C 1.570312 -2.304688 1.046875 -3.632812 1.046875 -5.3125 L 1.046875 -12.625 L 4.265625 -12.625 L 4.265625 -5.3125 C 4.265625 -4.46875 4.503906 -3.796875 4.984375 -3.296875 C 5.472656 -2.796875 6.109375 -2.546875 6.890625 -2.546875 C 7.660156 -2.546875 8.273438 -2.789062 8.734375 -3.28125 C 9.203125 -3.78125 9.4375 -4.457031 9.4375 -5.3125 L 9.4375 -12.625 Z M 12.625 -12.625 "/></g></g></g><g fill="#1c2120" fill-opacity="1"><g transform="translate(206.810187, 270.016855)"><g><path d="M 8.875 0 L 7 -3.5625 L 4.46875 -3.5625 L 4.46875 0 L 1.265625 0 L 1.265625 -12.625 L 6.90625 -12.625 C 8.582031 -12.625 9.875 -12.242188 10.78125 -11.484375 C 11.695312 -10.722656 12.15625 -9.640625 12.15625 -8.234375 C 12.15625 -6.285156 11.394531 -4.929688 9.875 -4.171875 L 12.53125 0 Z M 4.46875 -6.078125 L 6.90625 -6.078125 C 7.601562 -6.078125 8.144531 -6.25 8.53125 -6.59375 C 8.914062 -6.945312 9.109375 -7.457031 9.109375 -8.125 C 9.109375 -8.769531 8.914062 -9.257812 8.53125 -9.59375 C 8.144531 -9.9375 7.601562 -10.109375 6.90625 -10.109375 L 4.46875 -10.109375 Z M 4.46875 -6.078125 "/></g></g></g><g fill="#1c2120" fill-opacity="1"><g transform="translate(219.872321, 270.016855)"><g/></g></g><g fill="#1c2120" fill-opacity="1"><g transform="translate(224.057978, 270.016855)"><g><path d="M 1.265625 -12.625 L 6.703125 -12.625 C 8.679688 -12.625 10.289062 -12.039062 11.53125 -10.875 C 12.78125 -9.707031 13.40625 -8.1875 13.40625 -6.3125 C 13.40625 -4.445312 12.773438 -2.925781 11.515625 -1.75 C 10.253906 -0.582031 8.601562 0 6.5625 0 L 1.265625 0 Z M 4.46875 -10.0625 L 4.46875 -2.5625 L 6.765625 -2.5625 C 7.753906 -2.5625 8.5625 -2.90625 9.1875 -3.59375 C 9.820312 -4.289062 10.140625 -5.191406 10.140625 -6.296875 C 10.140625 -7.398438 9.804688 -8.300781 9.140625 -9 C 8.484375 -9.707031 7.644531 -10.0625 6.625 -10.0625 Z M 4.46875 -10.0625 "/></g></g></g><g fill="#1c2120" fill-opacity="1"><g transform="translate(237.895907, 270.016855)"><g><path d="M 8.875 0 L 7 -3.5625 L 4.46875 -3.5625 L 4.46875 0 L 1.265625 0 L 1.265625 -12.625 L 6.90625 -12.625 C 8.582031 -12.625 9.875 -12.242188 10.78125 -11.484375 C 11.695312 -10.722656 12.15625 -9.640625 12.15625 -8.234375 C 12.15625 -6.285156 11.394531 -4.929688 9.875 -4.171875 L 12.53125 0 Z M 4.46875 -6.078125 L 6.90625 -6.078125 C 7.601562 -6.078125 8.144531 -6.25 8.53125 -6.59375 C 8.914062 -6.945312 9.109375 -7.457031 9.109375 -8.125 C 9.109375 -8.769531 8.914062 -9.257812 8.53125 -9.59375 C 8.144531 -9.9375 7.601562 -10.109375 6.90625 -10.109375 L 4.46875 -10.109375 Z M 4.46875 -6.078125 "/></g></g></g><g fill="#1c2120" fill-opacity="1"><g transform="translate(250.958041, 270.016855)"><g><path d="M 7.25 -12.734375 C 9.21875 -12.734375 10.847656 -12.125 12.140625 -10.90625 C 13.441406 -9.6875 14.09375 -8.160156 14.09375 -6.328125 C 14.09375 -4.492188 13.4375 -2.957031 12.125 -1.71875 C 10.820312 -0.476562 9.195312 0.140625 7.25 0.140625 C 5.300781 0.140625 3.675781 -0.472656 2.375 -1.703125 C 1.082031 -2.941406 0.4375 -4.484375 0.4375 -6.328125 C 0.4375 -8.171875 1.082031 -9.695312 2.375 -10.90625 C 3.675781 -12.125 5.300781 -12.734375 7.25 -12.734375 Z M 7.296875 -10.046875 C 6.304688 -10.046875 5.460938 -9.6875 4.765625 -8.96875 C 4.066406 -8.257812 3.71875 -7.375 3.71875 -6.3125 C 3.71875 -5.257812 4.066406 -4.367188 4.765625 -3.640625 C 5.472656 -2.910156 6.3125 -2.546875 7.28125 -2.546875 C 8.257812 -2.546875 9.085938 -2.910156 9.765625 -3.640625 C 10.453125 -4.367188 10.796875 -5.257812 10.796875 -6.3125 C 10.796875 -7.375 10.453125 -8.257812 9.765625 -8.96875 C 9.085938 -9.6875 8.265625 -10.046875 7.296875 -10.046875 Z M 7.296875 -10.046875 "/></g></g></g><g fill="#1c2120" fill-opacity="1"><g transform="translate(265.481552, 270.016855)"><g><path d="M 1.265625 -12.625 L 6.765625 -12.625 C 8.378906 -12.625 9.628906 -12.242188 10.515625 -11.484375 C 11.410156 -10.722656 11.859375 -9.640625 11.859375 -8.234375 C 11.859375 -6.753906 11.410156 -5.601562 10.515625 -4.78125 C 9.628906 -3.96875 8.378906 -3.5625 6.765625 -3.5625 L 4.46875 -3.5625 L 4.46875 0 L 1.265625 0 Z M 4.46875 -10.109375 L 4.46875 -6.078125 L 6.609375 -6.078125 C 7.316406 -6.078125 7.863281 -6.25 8.25 -6.59375 C 8.632812 -6.945312 8.828125 -7.457031 8.828125 -8.125 C 8.828125 -8.769531 8.632812 -9.257812 8.25 -9.59375 C 7.863281 -9.9375 7.316406 -10.109375 6.609375 -10.109375 Z M 4.46875 -10.109375 "/></g></g></g></svg>